# xmcd
#
# Track frame offsets:
#	150
#	14736
#	27370
#	39531
#	54747
#	70911
#	89106
#	102348
#	116035
#	128492
#	142789
#	157742
#
# Disc length: 2338 seconds
# Revision: 1
# Processed by: cddbd v1.5.2PL0 Copyright (c) Steve Scherf et al.
# Submitted via: dBpowerAMP V12.0
#
DISCID=a109200c
DTITLE=Todd Grebe and Gold Country - Citizen
DYEAR=2015
DGENRE=Americana
TTITLE0=Criminal Style
TTITLE1=Box of Wine
TTITLE2=Luckiest Man Here on Earth
TTITLE3=More Than a Love Song
TTITLE4=Citizen
TTITLE5=Brown Hair
TTITLE6=Ain't That Fine
TTITLE7=Living a Lie
TTITLE8=Nothing Left to Lose
TTITLE9=Let's Make Love for Christmas
TTITLE10=Here's Wishing to You
TTITLE11=You'll Never Find Me
EXTD=
EXTT0=
EXTT1=
EXTT2=
EXTT3=
EXTT4=
EXTT5=
EXTT6=
EXTT7=
EXTT8=
EXTT9=
EXTT10=
EXTT11=
PLAYORDER=
